<svg xmlns="http://www.w3.org/2000/svg" viewBox="0 0 100 120" fill="none" stroke="currentColor" stroke-width="3.5" stroke-linecap="round" stroke-linejoin="round">
  <rect x="18" y="24" width="60" height="78" rx="12" />
  <path d="M34 24 V12 C34 9, 40 6, 48 6 C56 6, 62 9, 62 12 V24" />
  <rect x="40" y="32" width="16" height="6" rx="3" />
  <line x1="28" y1="24" x2="28" y2="102" />
  <line x1="68" y1="24" x2="68" y2="102" />
  <path d="M78 48 C84 48, 86 52, 86 63 C86 74, 84 78, 78 78" />
  <circle cx="28" cy="108" r="6" />
  <circle cx="68" cy="108" r="6" />
  <circle cx="38" cy="52" r="12" />
  <path d="M34 52 L42 46 L42 58 Z" />
  <rect x="52" y="58" width="16" height="12" rx="3" />
</svg>
